<svg aria-hidden="true" style="position:absolute;width:0;height:0" xmlns="http://www.w3.org/2000/svg" overflow="hidden"><defs><symbol id="icon-client3" viewBox="0 0 31 32"><path d="M4.722 31.103a.088.088 0 01.059.025l.153.161c-.119.13-.266.234-.431.305a1.532 1.532 0 01-.611.109 1.496 1.496 0 01-.574-.102 1.25 1.25 0 01-.712-.733 1.618 1.618 0 01-.098-.571c-.003-.195.033-.39.105-.573.067-.166.168-.317.297-.445.131-.126.287-.224.459-.29.189-.07.389-.104.591-.102.188-.004.375.027.549.093.152.063.291.15.412.257l-.128.171a.122.122 0 01-.033.031.084.084 0 01-.052.013.123.123 0 01-.056-.018l-.069-.046-.096-.058a.978.978 0 00-.302-.103 1.238 1.238 0 00-.228-.018 1.12 1.12 0 00-.425.077.96.96 0 00-.333.215.997.997 0 00-.216.343c-.054.145-.08.298-.078.452-.002.156.024.312.078.46.047.126.119.242.212.341a.863.863 0 00.318.212c.125.049.259.074.394.073.078.001.156-.004.234-.015a.87.87 0 00.354-.122c.054-.034.104-.072.151-.113a.115.115 0 01.073-.029zm4.422-.807c.002.194-.033.386-.103.567-.062.165-.161.315-.288.44s-.282.224-.452.289a1.711 1.711 0 01-1.164 0 1.281 1.281 0 01-.741-.735 1.61 1.61 0 010-1.136c.065-.166.164-.317.291-.447.128-.121.281-.216.45-.279.374-.139.79-.139 1.164 0 .17.066.324.165.452.29.126.127.224.276.289.44.071.183.106.376.103.571zm-.402 0a1.313 1.313 0 00-.073-.456.898.898 0 00-.528-.556 1.23 1.23 0 00-.846 0 .901.901 0 00-.531.556 1.465 1.465 0 000 .912.888.888 0 00.531.554c.273.097.573.097.846 0a.884.884 0 00.528-.554c.051-.147.076-.301.073-.456zm3.419.478l.04.102a3.46 3.46 0 01.044-.102.933.933 0 01.05-.1l.978-1.694c.019-.029.036-.047.056-.053a.217.217 0 01.08-.009h.289v2.755h-.343V29.561a.753.753 0 010-.095l-.984 1.718c-.012.026-.033.047-.058.063s-.054.023-.084.023h-.056a.154.154 0 01-.141-.086l-1.013-1.729v2.213h-.331v-2.75h.289a.24.24 0 01.08.009c.024.011.043.03.054.053l.999 1.696c.02.031.036.064.05.098zm3.68-.136v1.032h-.383v-2.752h.854a1.67 1.67 0 01.477.06.912.912 0 01.337.171.699.699 0 01.191.27.905.905 0 01.065.352.84.84 0 01-.071.352.744.744 0 01-.207.275.936.936 0 01-.339.182 1.498 1.498 0 01-.461.064l-.463-.007zm0-.296h.463a.992.992 0 00.297-.042.617.617 0 00.214-.119.477.477 0 00.13-.182.579.579 0 00.046-.232.522.522 0 00-.172-.412.766.766 0 00-.515-.148h-.463v1.134zm5.146 1.331h-.302a.133.133 0 01-.084-.026.164.164 0 01-.05-.064l-.26-.666h-1.307l-.27.666a.145.145 0 01-.048.062.132.132 0 01-.086.027h-.302l1.148-2.756h.398l1.164 2.756zm-1.895-1.023h1.08l-.456-1.122a1.828 1.828 0 01-.086-.259l-.044.144c-.013.044-.029.084-.042.117l-.452 1.12zm3.549-1.719a.16.16 0 01.057.049l1.675 2.077v-2.139h.343v2.756h-.191a.173.173 0 01-.078-.016.2.2 0 01-.061-.051l-1.673-2.075a.753.753 0 010 .095v2.048h-.343v-2.756h.203a.163.163 0 01.069.013zm4.896 1.646v1.094h-.383v-1.094l-1.059-1.66h.343a.124.124 0 01.082.024.256.256 0 01.052.062l.662 1.071a1.256 1.256 0 01.117.245l.05-.119c.019-.043.04-.085.065-.126l.653-1.078a.274.274 0 01.05-.058.116.116 0 01.082-.027h.346l-1.06 1.667zm-15.566-6.284c.167.02.335.036.505.051 2.583-1.101 4.768-2.902 6.282-5.18s2.29-4.929 2.231-7.624l-2.846-2.712c.579 2.869.308 5.836-.782 8.567s-2.956 5.12-5.389 6.898z"/><path d="M10.955 24.167l.077.015c2.6-1.772 4.583-4.247 5.691-7.104s1.292-5.965.526-8.922l-4.054-3.862c1.64 3.175 2.3 6.728 1.903 10.246s-1.833 6.857-4.143 9.628zm13.749-9.442c-.689 2.961-2.362 5.632-4.77 7.616a15.094 15.094 0 01-2.266 1.55c1.961-.549 3.764-1.52 5.269-2.838s2.672-2.947 3.412-4.763l-1.644-1.565z"/><path d="M24.059 14.289l-2.341-2.23c-.045 2.543-.804 5.028-2.197 7.197s-3.372 3.943-5.729 5.137h.012a14 14 0 001.572-.089c2.203-.857 4.148-2.219 5.664-3.967s2.553-3.825 3.021-6.047zM11.294 2.664L8.501 0C6.004.919 3.857 2.535 2.34 4.636S.008 9.225 0 11.775c.009 2.818 1.005 5.552 2.829 7.77s4.372 3.793 7.242 4.476c2.561-2.973 4.061-6.647 4.281-10.488s-.851-7.648-3.058-10.869zm19.218 11.214c-.01-3.343-1.408-6.546-3.89-8.91s-5.843-3.696-9.352-3.706a13.655 13.655 0 00-4.741.841l17.099 16.291c.586-1.44.885-2.971.884-4.515z"/></symbol><symbol id="icon-facebook" viewBox="0 0 32 32"><path d="M21.329 5.313h2.921V.225C23.746.156 22.013 0 19.994 0c-4.212 0-7.097 2.649-7.097 7.519V12H8.249v5.688h4.648V32h5.699V17.689h4.46l.708-5.688h-5.169V8.082c.001-1.644.444-2.769 2.735-2.769z"/></symbol><symbol id="icon-facebook_footer" viewBox="0 0 32 32"><path d="M21.329 5.313h2.921V.225C23.746.156 22.013 0 19.994 0c-4.212 0-7.097 2.649-7.097 7.519V12H8.249v5.688h4.648V32h5.699V17.689h4.46l.708-5.688h-5.169V8.082c.001-1.644.444-2.769 2.735-2.769z"/></symbol><symbol id="icon-icon_send" viewBox="0 0 32 32"><path d="M32 0L0 18l10.227 3.788L26 7 14.002 23.186l.01.004-.012-.004V32l5.735-6.691L27 28l5-28z"/></symbol><symbol id="icon-in" viewBox="0 0 32 32"><path d="M31.992 32v-.001H32V20.263c0-5.741-1.236-10.164-7.948-10.164-3.227 0-5.392 1.771-6.276 3.449h-.093v-2.913h-6.364v21.364h6.627V21.42c0-2.785.528-5.479 3.977-5.479 3.399 0 3.449 3.179 3.449 5.657v10.401h6.62zM.528 10.636h6.635V32H.528V10.636zM3.843 0C1.722 0 0 1.721 0 3.843s1.721 3.879 3.843 3.879c2.121 0 3.843-1.757 3.843-3.879A3.846 3.846 0 003.843 0z"/></symbol><symbol id="icon-insta_footer" viewBox="0 0 32 32"><path d="M31.969 9.408c-.075-1.7-.35-2.869-.744-3.882a7.806 7.806 0 00-1.851-2.838A7.867 7.867 0 0026.542.844C25.523.45 24.36.175 22.66.1 20.947.019 20.403 0 16.059 0s-4.888.019-6.595.094c-1.7.075-2.869.35-3.882.744a7.803 7.803 0 00-2.838 1.85A7.867 7.867 0 00.9 5.52C.506 6.539.231 7.702.156 9.402c-.081 1.713-.1 2.257-.1 6.601s.019 4.888.094 6.595c.075 1.7.35 2.869.744 3.882a7.895 7.895 0 001.85 2.838 7.867 7.867 0 002.832 1.844c1.019.394 2.182.669 3.882.744 1.706.075 2.25.094 6.595.094s4.888-.019 6.595-.094c1.7-.075 2.869-.35 3.882-.744a8.184 8.184 0 004.682-4.682c.394-1.019.669-2.182.744-3.882.075-1.707.094-2.251.094-6.595s-.006-4.888-.081-6.595zm-2.882 13.065c-.069 1.563-.331 2.407-.55 2.969a5.31 5.31 0 01-3.038 3.038c-.563.219-1.413.481-2.969.55-1.688.075-2.194.094-6.464.094s-4.782-.019-6.464-.094c-1.563-.069-2.407-.331-2.969-.55a4.926 4.926 0 01-1.838-1.194 4.974 4.974 0 01-1.194-1.838c-.219-.563-.481-1.413-.55-2.969-.075-1.688-.094-2.194-.094-6.464s.019-4.782.094-6.464c.069-1.563.331-2.407.55-2.969a4.868 4.868 0 011.2-1.838A4.974 4.974 0 016.639 3.55c.563-.219 1.413-.481 2.969-.55 1.688-.075 2.194-.094 6.464-.094 4.276 0 4.782.019 6.464.094 1.563.069 2.407.331 2.969.55a4.914 4.914 0 011.838 1.194 4.974 4.974 0 011.194 1.838c.219.563.481 1.413.55 2.969.075 1.688.094 2.194.094 6.464s-.019 4.77-.094 6.458z"/><path d="M16.059 7.783c-4.538 0-8.22 3.682-8.22 8.22s3.682 8.22 8.22 8.22c4.539 0 8.22-3.682 8.22-8.22s-3.682-8.22-8.22-8.22zm0 13.552a5.333 5.333 0 010-10.664 5.333 5.333 0 010 10.664zM26.524 7.458a1.919 1.919 0 11-3.838 0 1.919 1.919 0 013.838 0z"/></symbol><symbol id="icon-instagram" viewBox="0 0 32 32"><path d="M31.969 9.408c-.075-1.7-.35-2.869-.744-3.882a7.806 7.806 0 00-1.851-2.838A7.867 7.867 0 0026.542.844C25.523.45 24.36.175 22.66.1 20.947.019 20.403 0 16.059 0s-4.888.019-6.595.094c-1.7.075-2.869.35-3.882.744a7.803 7.803 0 00-2.838 1.85A7.867 7.867 0 00.9 5.52C.506 6.539.231 7.702.156 9.402c-.081 1.713-.1 2.257-.1 6.601s.019 4.888.094 6.595c.075 1.7.35 2.869.744 3.882a7.895 7.895 0 001.85 2.838 7.867 7.867 0 002.832 1.844c1.019.394 2.182.669 3.882.744 1.706.075 2.25.094 6.595.094s4.888-.019 6.595-.094c1.7-.075 2.869-.35 3.882-.744a8.184 8.184 0 004.682-4.682c.394-1.019.669-2.182.744-3.882.075-1.707.094-2.251.094-6.595s-.006-4.888-.081-6.595zm-2.882 13.065c-.069 1.563-.331 2.407-.55 2.969a5.31 5.31 0 01-3.038 3.038c-.563.219-1.413.481-2.969.55-1.688.075-2.194.094-6.464.094s-4.782-.019-6.464-.094c-1.563-.069-2.407-.331-2.969-.55a4.926 4.926 0 01-1.838-1.194 4.974 4.974 0 01-1.194-1.838c-.219-.563-.481-1.413-.55-2.969-.075-1.688-.094-2.194-.094-6.464s.019-4.782.094-6.464c.069-1.563.331-2.407.55-2.969a4.868 4.868 0 011.2-1.838A4.974 4.974 0 016.639 3.55c.563-.219 1.413-.481 2.969-.55 1.688-.075 2.194-.094 6.464-.094 4.276 0 4.782.019 6.464.094 1.563.069 2.407.331 2.969.55a4.914 4.914 0 011.838 1.194 4.974 4.974 0 011.194 1.838c.219.563.481 1.413.55 2.969.075 1.688.094 2.194.094 6.464s-.019 4.77-.094 6.458z"/><path d="M16.059 7.783c-4.538 0-8.22 3.682-8.22 8.22s3.682 8.22 8.22 8.22c4.539 0 8.22-3.682 8.22-8.22s-3.682-8.22-8.22-8.22zm0 13.552a5.333 5.333 0 010-10.664 5.333 5.333 0 010 10.664zM26.524 7.458a1.919 1.919 0 11-3.838 0 1.919 1.919 0 013.838 0z"/></symbol><symbol id="icon-linkedin_footer" viewBox="0 0 32 32"><path d="M31.992 32v-.001H32V20.263c0-5.741-1.236-10.164-7.948-10.164-3.227 0-5.392 1.771-6.276 3.449h-.093v-2.913h-6.364v21.364h6.627V21.42c0-2.785.528-5.479 3.977-5.479 3.399 0 3.449 3.179 3.449 5.657v10.401h6.62zM.528 10.636h6.635V32H.528V10.636zM3.843 0C1.722 0 0 1.721 0 3.843s1.721 3.879 3.843 3.879c2.121 0 3.843-1.757 3.843-3.879A3.846 3.846 0 003.843 0z"/></symbol><symbol id="icon-twitter" viewBox="0 0 32 32"><path d="M32 6.078c-1.19.522-2.458.868-3.78 1.036a6.523 6.523 0 002.886-3.626 13.11 13.11 0 01-4.16 1.588A6.574 6.574 0 0022.154 3c-3.632 0-6.556 2.948-6.556 6.562 0 .52.044 1.02.152 1.496-5.454-.266-10.28-2.88-13.522-6.862a6.605 6.605 0 00-.898 3.316 6.57 6.57 0 002.914 5.452 6.479 6.479 0 01-2.964-.808v.072c0 3.188 2.274 5.836 5.256 6.446a6.548 6.548 0 01-1.72.216 5.8 5.8 0 01-1.242-.112c.85 2.598 3.262 4.508 6.13 4.57a13.182 13.182 0 01-8.134 2.798c-.538 0-1.054-.024-1.57-.09A18.469 18.469 0 0010.064 29c12.072 0 18.672-10 18.672-18.668 0-.29-.01-.57-.024-.848A13.087 13.087 0 0032 6.078z"/></symbol><symbol id="icon-twitter_footer" viewBox="0 0 32 32"><path d="M32 6.078c-1.19.522-2.458.868-3.78 1.036a6.523 6.523 0 002.886-3.626 13.11 13.11 0 01-4.16 1.588A6.574 6.574 0 0022.154 3c-3.632 0-6.556 2.948-6.556 6.562 0 .52.044 1.02.152 1.496-5.454-.266-10.28-2.88-13.522-6.862a6.605 6.605 0 00-.898 3.316 6.57 6.57 0 002.914 5.452 6.479 6.479 0 01-2.964-.808v.072c0 3.188 2.274 5.836 5.256 6.446a6.548 6.548 0 01-1.72.216 5.8 5.8 0 01-1.242-.112c.85 2.598 3.262 4.508 6.13 4.57a13.182 13.182 0 01-8.134 2.798c-.538 0-1.054-.024-1.57-.09A18.469 18.469 0 0010.064 29c12.072 0 18.672-10 18.672-18.668 0-.29-.01-.57-.024-.848A13.087 13.087 0 0032 6.078z"/></symbol><symbol id="icon-client1" viewBox="0 0 29 32"><path d="M3.84 0l4.677 4.428h13.046v12.351l4.677 4.428V.001H3.84z"/><path d="M0 4.241v20.6h21.76v-8.188L8.655 4.247 0 4.242zm17.615 17.587H3.443V7.974h1.002V20.89h13.17v.938zM6.266 28.662l.523-1.078h.438l-.763 1.438v.837h-.397v-.837l-.764-1.438h.439l.523 1.078zm2.247.667h-.881l-.184.53h-.411l.859-2.275h.355l.861 2.275H8.7l-.186-.53zm-.77-.319h.659l-.33-.944-.33.944zm2.328.234c0-.105.029-.202.086-.289.057-.089.17-.193.339-.314-.088-.111-.151-.206-.186-.284s-.052-.154-.052-.227c0-.178.054-.319.162-.422s.254-.156.438-.156a.57.57 0 01.406.147.47.47 0 01.159.361.5.5 0 01-.072.262.879.879 0 01-.236.238l-.155.113.439.519a.9.9 0 00.095-.417h.33c0 .28-.066.51-.197.689l.334.395h-.441l-.128-.152c-.162.122-.356.183-.581.183s-.405-.059-.541-.178a.599.599 0 01-.202-.467zm.753.343a.58.58 0 00.359-.128l-.497-.586-.048.034c-.125.095-.188.203-.188.325 0 .105.034.191.102.256s.158.098.272.098zm-.209-1.466c0 .087.054.197.161.33l.173-.119.048-.039a.28.28 0 00.097-.22.2.2 0 00-.067-.152.236.236 0 00-.17-.064c-.074 0-.133.025-.177.075s-.066.113-.066.189zm4.133.997a.827.827 0 01-.269.569c-.156.135-.364.203-.623.203a.902.902 0 01-.48-.128c-.137-.086-.244-.209-.319-.367s-.114-.342-.117-.552v-.212c0-.215.038-.404.114-.567a.86.86 0 01.821-.511c.251 0 .453.068.606.205s.242.329.267.578h-.394c-.019-.164-.067-.281-.144-.353-.076-.073-.188-.109-.336-.109a.464.464 0 00-.397.189c-.092.125-.139.309-.141.552v.202c0 .246.044.433.131.563s.218.194.387.194c.155 0 .272-.035.35-.105s.128-.186.148-.348h.394zm2.17-.338c0 .223-.039.419-.116.588a.884.884 0 01-.331.388.905.905 0 01-.494.134.926.926 0 01-.494-.134.896.896 0 01-.334-.386 1.362 1.362 0 01-.119-.576v-.128c0-.222.039-.418.117-.588a.887.887 0 01.333-.389c.144-.091.308-.136.494-.136s.349.045.492.134c.144.088.255.217.333.384s.118.361.119.583v.127zm-.395-.118c0-.252-.048-.445-.144-.58a.468.468 0 00-.405-.202.467.467 0 00-.402.202c-.096.133-.145.322-.147.567v.131c0 .25.048.443.145.58s.233.205.406.205a.464.464 0 00.403-.2c.095-.133.142-.328.142-.584v-.119z"/></symbol><symbol id="icon-client2" viewBox="0 0 25 32"><path d="M10.447 1.806h.084c.156 0 .324.016.49.03.734.052 1.463.162 2.179.329V.403a12.97 12.97 0 00-2.25-.358 18.11 18.11 0 00-.909-.044h-.263a18.35 18.35 0 00-4.515.582 18.3 18.3 0 00-4.79 1.948v17.475a19.484 19.484 0 014.566-1.779 19.948 19.948 0 013.833-.588h.051c.216-.011.433-.017.655-.019v-1.79a21.155 21.155 0 00-4.982.662 23.81 23.81 0 00-1.731.513l-.623.211V3.591l.266-.128a17.409 17.409 0 016.471-1.651.523.523 0 01.056 0c.248-.013.497-.019.741-.019h.28c.129.003.258.006.388.014z"/><path d="M14.838 3.651a15.823 15.823 0 01-2.606-.211c-.277-.047-.55-.103-.814-.164v17.275a13.82 13.82 0 003.425.404 18.396 18.396 0 004.515-.581 18.362 18.362 0 004.792-1.948V1.263a19.562 19.562 0 01-4.564 1.781 19.388 19.388 0 01-4.747.609zm6.907.299l.623-.21v13.63l-.266.128a17.055 17.055 0 01-3.184 1.144c-1.331.344-2.7.522-4.074.527-.411 0-.819-.017-1.214-.052l-.427-.038V5.062l.497.033c.361.023.735.034 1.141.034a21.098 21.098 0 005.173-.663 26.802 26.802 0 001.731-.518zM1.684 25.977a.912.912 0 00-.693-.28 1.034 1.034 0 00-.4.075.91.91 0 00-.512.518 1.023 1.023 0 00-.072.387v2.335c-.006.165.026.328.092.479.055.12.135.226.233.313a.815.815 0 00.321.166c.114.032.231.048.349.049a.972.972 0 00.892-.61.951.951 0 00.075-.372v-.261h-.61v.208a.528.528 0 01-.036.208.359.359 0 01-.089.131.365.365 0 01-.128.067.425.425 0 01-.128.022.314.314 0 01-.286-.125.548.548 0 01-.081-.313v-2.177a.738.738 0 01.075-.349.31.31 0 01.299-.141.33.33 0 01.272.131c.068.09.104.2.101.313v.202h.604v-.238a1.093 1.093 0 00-.279-.737zm3.626-.027a1.091 1.091 0 00-.694-.257 1.075 1.075 0 00-.364.066.961.961 0 00-.559.518 1.099 1.099 0 00-.089.452v2.239a1.08 1.08 0 00.089.459c.055.12.136.227.237.313a.94.94 0 00.322.197c.117.043.24.065.364.066s.248-.022.364-.066c.121-.044.233-.111.33-.197a.948.948 0 00.23-.313c.063-.144.093-.301.089-.459v-2.239a1.08 1.08 0 00-.089-.452 1.015 1.015 0 00-.23-.327zm-.285 3.019a.405.405 0 01-.121.324.445.445 0 01-.574 0 .397.397 0 01-.121-.324V26.73a.405.405 0 01.121-.324.445.445 0 01.574 0 .397.397 0 01.121.324v2.239zm5.047 1V25.73h-.587l-.771 2.244h-.011l-.777-2.244h-.581v4.239h.606V27.39h.011l.593 1.823h.302l.598-1.823h.011v2.579h.606zm3.441-3.942a.84.84 0 00-.343-.232 1.363 1.363 0 00-.439-.066h-.9v4.239h.604v-1.656h.311c.188.009.376-.031.545-.116a.882.882 0 00.332-.324 1.02 1.02 0 00.139-.369c.024-.16.035-.321.033-.482a2.421 2.421 0 00-.059-.606.898.898 0 00-.223-.39zm-.312 1.292a.547.547 0 01-.056.221.346.346 0 01-.156.149.619.619 0 01-.285.053h-.276v-1.441h.311a.578.578 0 01.272.053.349.349 0 01.142.157.62.62 0 01.053.236v.282c0 .099.006.2 0 .291H13.2zm3.173-1.589h-.495l-.934 4.239h.604l.177-.911h.824l.177.911h.604l-.957-4.239zm-.558 2.751l.297-1.537h.011l.296 1.537h-.604zm4.461-.198h-.011l-.912-2.554h-.581v4.239h.604v-2.549h.012l.923 2.549h.568v-4.239h-.604v2.554zm3.691-2.553l-.486 1.685h-.012l-.486-1.685h-.64l.83 2.447v1.792h.604v-1.792l.83-2.447h-.64zM0 31.166h.291v.817h.198v-.817h.29v-.167H.001v.167zm2.447-.168l-.381.984h.21l.081-.224h.392l.084.224h.215l-.391-.984h-.21zm-.031.595l.134-.365.134.365h-.268zm2.45.027h.227v.127a.382.382 0 01-.234.083.244.244 0 01-.209-.093.411.411 0 01-.073-.257c0-.219.095-.329.283-.329a.206.206 0 01.222.157l.195-.038c-.042-.192-.181-.289-.417-.289a.495.495 0 00-.344.127.494.494 0 00-.141.379.532.532 0 00.126.369.477.477 0 00.374.144.59.59 0 00.417-.157v-.388h-.427v.166zm2.471-.622h-.199v.984h.69v-.167h-.49v-.817zm2.089 0h-.199v.984h.199v-.984zm2.043.658l-.403-.657h-.193v.984h.185v-.643l.395.643h.198v-.984h-.182v.657zm1.846-.107h.49v-.167h-.49v-.216h.528v-.167h-.727v.984h.747v-.167h-.548v-.266zm4.477-.162h-.388v-.388h-.198v.984h.198v-.43h.388v.43h.198v-.984h-.198v.388zm1.857.162h.492v-.167h-.492v-.216h.529v-.167h-.727v.984h.746v-.167h-.548v-.266zm2.519 0c.171-.027.258-.117.258-.274a.236.236 0 00-.096-.219.553.553 0 00-.288-.058h-.417v.984h.198v-.412h.039a.261.261 0 01.123.022.21.21 0 01.07.072l.215.313h.237l-.12-.192a.685.685 0 00-.218-.236zm-.199-.136h-.146v-.247h.156a.507.507 0 01.201.023.135.135 0 01.033.046.133.133 0 01-.005.111.128.128 0 01-.037.043.547.547 0 01-.201.023zm2.098.136h.49v-.167h-.49v-.216h.529v-.167h-.729v.984h.747v-.167h-.548v-.266z"/></symbol><symbol id="icon-client4" viewBox="0 0 60 32"><path d="M9.23 9.548h-.002c-1.684 0-3.048 1.33-3.048 2.971v.002c0 1.641 1.365 2.971 3.048 2.971h.002c1.684 0 3.048-1.33 3.048-2.971v-.002c0-1.641-1.365-2.971-3.048-2.971zm22.5-.949c-.005-2.279-.936-4.463-2.589-6.074S25.247.006 22.908.001c-2.339.004-4.581.911-6.235 2.523S14.087 6.32 14.083 8.6v12.566S31.728 19.251 31.73 8.602V8.6zM0 25.289c.004 1.586.652 3.105 1.803 4.226s2.709 1.753 4.336 1.758c1.627-.005 3.185-.636 4.336-1.757s1.799-2.64 1.803-4.225v-8.744S0 17.881 0 25.289zm6.139 1.567c-.318 0-.629-.092-.893-.264s-.47-.417-.592-.703-.154-.601-.091-.905c.062-.304.215-.583.44-.802s.511-.368.823-.429c.312-.06.635-.029.929.089s.545.319.721.577a1.537 1.537 0 01.15 1.471 1.585 1.585 0 01-.87.851c-.195.079-.405.12-.617.12v-.006zm12.532-.972h-1.256v1.297h-.654v-3.174h2.067v.53h-1.413v.82h1.256v.528zm3.144-.218c0 .312-.055.587-.166.822s-.269.417-.475.545c-.205.128-.44.192-.706.192-.263 0-.498-.063-.704-.19s-.366-.307-.48-.541a1.867 1.867 0 01-.172-.811v-.157c0-.312.056-.587.168-.824a1.26 1.26 0 01.477-.547c.206-.128.442-.192.706-.192s.499.064.704.192c.206.126.366.309.477.547.113.237.17.511.17.822v.142zm-.663-.144c0-.333-.06-.586-.179-.759s-.289-.259-.51-.259a.582.582 0 00-.508.257c-.119.17-.18.42-.181.75v.155c0 .324.06.576.179.754s.291.268.515.268a.579.579 0 00.506-.257c.118-.173.177-.424.179-.754v-.155zm2.784.826a.331.331 0 00-.131-.283c-.087-.067-.244-.137-.471-.209a3.432 3.432 0 01-.539-.218c-.36-.195-.541-.457-.541-.787 0-.172.048-.324.144-.458a.945.945 0 01.416-.316c.182-.076.385-.113.61-.113.227 0 .429.041.606.124a.946.946 0 01.412.347c.099.15.148.32.148.51h-.654a.427.427 0 00-.137-.338c-.092-.081-.22-.122-.386-.122a.602.602 0 00-.373.102.317.317 0 00-.133.266c0 .103.052.19.155.259.105.07.258.135.46.196.372.112.643.251.813.416s.255.372.255.619a.767.767 0 01-.312.648c-.208.156-.488.233-.839.233-.244 0-.467-.044-.667-.133a1.07 1.07 0 01-.46-.368.945.945 0 01-.157-.541h.656c0 .35.209.525.628.525a.61.61 0 00.364-.094.313.313 0 00.131-.266zm3.491-1.812h-.972v2.645h-.654v-2.645h-.959v-.53h2.586v.53zm2.285 1.269h-1.256v.85h1.474v.525h-2.128v-3.174h2.124v.53h-1.469v.757h1.256v.512zm1.777.214h-.521v1.162h-.654v-3.174h1.179c.375 0 .664.084.868.251s.305.403.305.709a.973.973 0 01-.142.543.95.95 0 01-.425.344l.687 1.297v.03h-.702l-.595-1.162zm-.521-.53h.528c.164 0 .291-.041.382-.124.09-.084.135-.2.135-.347a.476.476 0 00-.129-.353c-.084-.086-.214-.129-.39-.129h-.525v.953zm3.963.574v1.118h-.654v-3.174h1.238c.238 0 .448.044.628.131a.964.964 0 01.419.373c.097.16.146.342.146.547 0 .311-.107.557-.321.737-.212.179-.507.268-.883.268h-.573zm0-.53h.584c.173 0 .305-.041.395-.122.092-.081.137-.198.137-.349 0-.156-.046-.281-.137-.377s-.218-.145-.379-.148h-.6v.996zm4.138.272h-1.256v.85h1.474v.525h-2.128v-3.174h2.124v.53h-1.469v.757h1.256v.512zm3.035-1.269h-.972v2.645h-.654v-2.645h-.959v-.53h2.586v.53zm2.285 1.269h-1.256v.85h1.474v.525h-2.128v-3.174h2.124v.53h-1.47v.757h1.256v.512zm1.777.214h-.521v1.162h-.654v-3.174h1.18c.375 0 .664.084.868.251s.305.403.305.709a.973.973 0 01-.142.543.95.95 0 01-.425.344l.687 1.297v.03h-.702l-.595-1.162zm-.521-.53h.528c.164 0 .291-.041.382-.124.09-.084.135-.2.135-.347a.476.476 0 00-.129-.353c-.084-.086-.214-.129-.39-.129h-.525v.953zm3.844.859a.331.331 0 00-.131-.283c-.087-.067-.244-.137-.471-.209a3.375 3.375 0 01-.538-.218c-.36-.195-.541-.457-.541-.787 0-.172.048-.324.144-.458a.945.945 0 01.416-.316c.182-.076.385-.113.61-.113.227 0 .429.041.606.124a.946.946 0 01.412.347c.099.15.148.32.148.51h-.654a.427.427 0 00-.137-.338c-.092-.081-.22-.122-.386-.122a.602.602 0 00-.373.102.317.317 0 00-.133.266c0 .103.052.19.155.259.105.07.258.135.46.196.372.112.643.251.813.416s.255.372.255.619a.767.767 0 01-.312.648c-.208.156-.488.233-.839.233-.244 0-.467-.044-.667-.133a1.07 1.07 0 01-.46-.368.945.945 0 01-.157-.541h.656c0 .35.209.525.628.525a.61.61 0 00.364-.094.313.313 0 00.131-.266z"/></symbol><symbol id="icon-client5" viewBox="0 0 39 32"><path d="M4.938 22.852a.908.908 0 01.201.588.933.933 0 01-.312.743 1.35 1.35 0 01-.907.271H2.326v-3.727h1.561c.308-.021.614.067.865.248a.846.846 0 01.303.697.866.866 0 01-.181.57.844.844 0 01-.475.291.912.912 0 01.539.319zm-1.869-.562h.667a.632.632 0 00.424-.124.45.45 0 00.143-.364.462.462 0 00-.141-.364.647.647 0 00-.437-.126h-.656v.978zm1.157 1.429c.054-.047.096-.105.123-.171s.039-.137.035-.208a.47.47 0 00-.161-.382.69.69 0 00-.453-.135h-.7v1.025h.709a.701.701 0 00.448-.129zm3.903.736l-.868-1.456h-.326v1.456h-.747v-3.727h1.414a1.39 1.39 0 01.985.317 1.188 1.188 0 01.105 1.541 1.147 1.147 0 01-.675.379l.925 1.489H8.13zM6.935 22.49h.611c.424 0 .636-.188.636-.564a.56.56 0 00-.156-.419.66.66 0 00-.48-.151h-.618l.007 1.134zm5.278 1.214h-1.489l-.263.75h-.783l1.367-3.685h.847l1.362 3.685h-.783l-.258-.75zm-.2-.564l-.544-1.573-.544 1.573h1.088zm5.311 1.315h-.742l-1.663-2.534v2.534h-.74v-3.727h.74l1.663 2.549v-2.549h.742v3.727zm4.232-.892c-.153.281-.387.51-.671.657a2.182 2.182 0 01-1.043.235h-1.32v-3.727h1.32a2.23 2.23 0 011.043.229c.284.144.518.37.671.65a2.169 2.169 0 010 1.956zm-.848-.09a1.367 1.367 0 000-1.778 1.288 1.288 0 00-.928-.317h-.515v2.412h.515c.339.021.673-.093.928-.317zM12.677 0s9.572 3.628 9.369 8.879v8.88s-9.565-3.63-9.365-8.88L12.677 0zm17.896 15.68a13.081 13.081 0 016.081-2.25v-2.78a12.484 12.484 0 00-6.081 5.03z"/><path d="M29.487 16.517a13.024 13.024 0 017.168-6.45v-8.01S23.023 7.225 23.312 14.702v12.643s.607-.231 1.563-.665c0-.404 0-.812.044-1.222a13.152 13.152 0 014.569-8.942z"/><path d="M28.191 21.214a13.09 13.09 0 01.477-2.589 12.238 12.238 0 00-2.886 7.637 39.617 39.617 0 002.622-1.387 13.111 13.111 0 01-.212-3.661zm.542.046a12.529 12.529 0 00.169 3.315c3.724-2.237 7.909-5.694 7.748-9.872v-.364a12.205 12.205 0 00-7.086 3.324 12.495 12.495 0 00-.83 3.597z"/></symbol><symbol id="icon-client6" viewBox="0 0 57 32"><path d="M28.883 12.654a1.93 1.93 0 01-.338-1.219V9.667c0-.542.112-.954.336-1.235s.609-.422 1.155-.421c.513 0 .877.12 1.092.36.235.306.349.68.323 1.057v.415h-.917v-.421a2.37 2.37 0 00-.027-.412.41.41 0 00-.131-.245.495.495 0 00-.332-.095.52.52 0 00-.349.101.48.48 0 00-.152.27 2.288 2.288 0 00-.036.437v2.145c-.014.207.026.414.118.602.046.064.109.114.183.146s.156.043.237.034a.472.472 0 00.325-.097.442.442 0 00.137-.261c.021-.142.031-.286.028-.43v-.435h.917v.397c.026.393-.086.784-.317 1.111-.211.262-.57.394-1.098.394s-.927-.14-1.153-.432zm3.82.018c-.232-.275-.348-.676-.348-1.207V9.606c0-.525.116-.922.348-1.192s.619-.404 1.162-.403c.539 0 .925.134 1.157.403.232.27.349.667.349 1.192v1.859c0 .525-.118.928-.353 1.205s-.619.415-1.153.415-.929-.14-1.162-.413zm1.589-.446c.083-.172.121-.361.11-.55V9.4a1.083 1.083 0 00-.108-.539c-.047-.065-.111-.116-.187-.148s-.16-.043-.242-.032c-.082-.011-.166 0-.243.032s-.141.083-.189.148a1.064 1.064 0 00-.11.539v2.287c-.012.189.026.378.11.55a.593.593 0 00.858 0v-.011zm2.182-4.16h.988l.743 3.43.76-3.43h.961l.097 4.951h-.71l-.076-3.441-.733 3.441h-.57l-.76-3.454-.07 3.454h-.718l.089-4.951zm4.656 0h1.538c.886 0 1.329.469 1.329 1.406 0 .898-.467 1.346-1.4 1.345h-.524v2.201h-.95l.006-4.951zm1.314 2.116c.094.011.189.003.279-.024s.173-.072.243-.133a.861.861 0 00.137-.559 1.656 1.656 0 00-.046-.449.383.383 0 00-.19-.236.906.906 0 00-.424-.079h-.368v1.48h.368zm2.922-2.116h1.02l1.046 4.951h-.885l-.207-1.142h-.91l-.213 1.142h-.898l1.046-4.951zm.872 3.236l-.355-2.078-.355 2.078h.71zm2.04-3.236h.665l1.272 2.824V8.066h.788v4.951h-.632l-1.28-2.948v2.948h-.815l.002-4.951zm4.572 3.063l-1.058-3.056h.891l.646 1.963.606-1.963h.872l-1.045 3.056v1.888h-.912v-1.888zm-22.501 4.053v.259h-.775v2.012h-.325v-2.012h-.779v-.259h1.878zm2.43 2.271h-.251a.103.103 0 01-.07-.022.119.119 0 01-.042-.052l-.224-.539h-1.075l-.224.539a.148.148 0 01-.034.061.11.11 0 01-.07.022h-.251l.95-2.271h.331l.961 2.262zm-1.573-.844h.896l-.38-.924a1.621 1.621 0 01-.07-.214l-.036.12-.034.095-.376.922zm3.21.621a.988.988 0 00.331-.027c.047-.011.092-.025.137-.041.042-.016.084-.036.127-.056v-.511h-.38a.072.072 0 01-.052-.018c-.006-.005-.011-.012-.014-.019s-.005-.015-.005-.023v-.174h.737v.87a1.368 1.368 0 01-.638.232 2.57 2.57 0 01-.277.014 1.347 1.347 0 01-.479-.084 1.16 1.16 0 01-.38-.237 1.097 1.097 0 01-.332-.831 1.288 1.288 0 01.085-.475c.055-.135.138-.257.245-.36.108-.102.238-.182.38-.236.163-.058.335-.087.509-.085.088 0 .177.007.264.02a1.172 1.172 0 01.581.267l-.091.14c-.007.013-.018.024-.031.031s-.028.012-.043.012a.123.123 0 01-.059-.018.984.984 0 01-.093-.054.824.824 0 00-.127-.061 1.167 1.167 0 00-.175-.05 1.3 1.3 0 00-.241-.02c-.125-.001-.25.02-.367.063a.775.775 0 00-.456.462 1.156 1.156 0 000 .757.814.814 0 00.19.286.804.804 0 00.277.18.978.978 0 00.376.045zm3.027-.037h1.037v.259h-1.354v-2.271h.325l-.008 2.012zm2.116.259h-.325v-2.271h.325v2.271zm1.208-2.26c.019.01.036.025.049.041l1.388 1.712a.547.547 0 010-.081v-1.692h.283v2.28h-.163a.141.141 0 01-.07-.013.177.177 0 01-.051-.043l-1.386-1.71v1.765h-.272V15.18h.169a.14.14 0 01.053.011zm4.111-.01v.25h-1.151v.75h.932v.241h-.932v.775h1.151v.25h-1.485v-2.265h1.485zM10.847 1.158l14.421 3.876v13.583l-14.421-3.875V1.157zM9.922 0v15.403l16.269 4.374V4.376L9.922 0z"/><path d="M18.641 26.928L2.37 22.55V7.149l16.271 4.376v15.403zM10.191.983l14.233 3.828-6.053 5.732-14.235-3.83 6.055-5.73zM9.922 0L2.371 7.149l16.271 4.376 7.549-7.149L9.922 0zm9.634 26.061l6.634-6.282-6.634-1.785v8.067z"/></symbol><symbol id="icon-antenna1" viewBox="0 0 32 32"><path d="M30.773 22.098l-8.443-8.505.937-4.615c.242.094.499.144.758.146h.006a2.159 2.159 0 10-2.008-1.435l-4.96.605L8.972.161a.534.534 0 00-.377-.16.532.532 0 00-.373.155L6.709 1.66a.534.534 0 000 .754l.814.826a14.943 14.943 0 002.519 17.663.513.513 0 00.146.098c-.034.18-.051.364-.052.547v6.187h-6.4a2.67 2.67 0 00-2.667 2.667v1.067c0 .295.239.533.533.533h24.533a.533.533 0 00.533-.533v-1.067a2.67 2.67 0 00-2.667-2.667h-6.4v-2.742a15.09 15.09 0 003.049.32 14.854 14.854 0 007.04-1.783l.818.823a.534.534 0 00.377.16.532.532 0 00.373-.155l1.513-1.504a.534.534 0 000-.754zM23.28 6.233a1.066 1.066 0 11.752 1.822h-.003a1.067 1.067 0 01-.747-1.823h-.002zm-1.256 3.505l-.598 2.946-1.175-1.182 1.774-1.763zm-.605-.902l-1.92 1.909-1.485-1.493 3.405-.415zM24.004 28.8a1.6 1.6 0 011.6 1.6v.533H2.137V30.4a1.6 1.6 0 011.6-1.6h20.267zm-7.467-2.133v1.067h-5.333v-1.067h5.333zM11.204 25.6v-4.053c0-1.294 1.196-2.347 2.667-2.347s2.667 1.053 2.667 2.347V25.6h-5.333zm6.4-1.696v-2.357c0-1.882-1.675-3.413-3.733-3.413a3.8 3.8 0 00-3.281 1.786A13.87 13.87 0 018.311 4.033l18.602 18.708a13.818 13.818 0 01-9.309 1.163zm11.289-.684L7.836 2.039l.755-.752 7.935 7.98c.004 0 .006.007.01.01l13.115 13.191-.757.752z"/><path d="M13.876 20.267h-.005a1.6 1.6 0 10-.004 3.2h.005a1.6 1.6 0 10.004-3.2zm.373 1.978a.534.534 0 01-.752-.756.534.534 0 01.373-.155.532.532 0 01.373.911h.005z"/></symbol><symbol id="icon-astronaut1" viewBox="0 0 32 32"><path d="M31.974 4.524a.534.534 0 00-.43-.363l-1.91-.278-.855-1.731c-.179-.365-.777-.365-.956 0l-.855 1.731-1.91.278a.535.535 0 00-.296.91l1.383 1.348-.326 1.903c-.034.2.048.402.212.522a.53.53 0 00.562.04l1.709-.899 1.709.899a.536.536 0 00.775-.563l-.326-1.903 1.383-1.348a.536.536 0 00.135-.547zm-2.463 1.327a.534.534 0 00-.153.472l.191 1.114-1-.526a.533.533 0 00-.498 0l-1.001.526.191-1.114a.534.534 0 00-.153-.472l-.81-.789 1.119-.163a.532.532 0 00.402-.292l.5-1.013.5 1.013a.535.535 0 00.402.292l1.119.163-.809.789zm-3.378 14.671h-1.067v1.067h1.067v-1.067zm0 2.134h-1.067v1.067h1.067v-1.067zm1.067-1.067h-1.067v1.067H27.2v-1.067zm-2.133 0H24v1.067h1.067v-1.067zm-2.667 4.8h-1.067v1.067H22.4v-1.067zm0 2.133h-1.067v1.067H22.4v-1.067zm1.067-1.066H22.4v1.067h1.067v-1.067zm-2.134 0h-1.067v1.067h1.067v-1.067zM16 24.256h-1.067v1.067H16v-1.067zm0 2.133h-1.067v1.067H16v-1.067zm1.067-1.067H16v1.067h1.067v-1.067zm-2.134 0h-1.067v1.067h1.067v-1.067zm-9.067-19.2H4.799v1.067h1.067V6.122zm0 2.133H4.799v1.067h1.067V8.255z"/><path d="M6.933 7.189H5.866v1.067h1.067V7.189zm-2.133 0H3.733v1.067H4.8V7.189z"/><path d="M24.715 14.159a1.775 1.775 0 00-1.188-.705 1.778 1.778 0 00-1.34.352l-1.252.96-1.898 1.417-1.358-.541c2.421-1.086 4.114-3.508 4.114-6.32 0-3.823-3.123-6.933-6.961-6.933s-6.961 3.11-6.961 6.933a6.86 6.86 0 001.12 3.758l-2.764-.024h-.005c-.009 0-.015.004-.023.005a.515.515 0 00-.155.031l-.038.013c-.006.003-.013.003-.019.006l-3.233 1.596-.001.001-1.893.911a.397.397 0 00-.063.035 1.779 1.779 0 00-.598 2.295c.22.429.595.745 1.056.889a1.776 1.776 0 001.378-.128l1.388-.738 2.264-1.169 1.357-.008L2.2 22.211l-.002.001-1.339 1.333c-.316.315-.49.732-.49 1.178s.174.863.49 1.179c.325.323.752.485 1.179.485s.854-.162 1.18-.485l1.314-1.309 1.741-1.3.901.897-1.762 1.754-.002.001-1.339 1.333c-.316.315-.49.732-.49 1.178s.174.863.49 1.179c.325.323.753.485 1.18.485s.855-.162 1.18-.485l3.482-3.467.001-.002 1.01-1-.004-.004c.006-.006.015-.009.022-.015l5.166-5.658 3.471.494a.52.52 0 00.262-.033c.018-.006.033-.015.05-.023.019-.01.039-.015.058-.027l3.213-2.133c.012-.008.018-.021.029-.029.013-.01.029-.014.041-.026l1.271-1.191c.662-.62.753-1.635.212-2.362zM2.13 17.77a.714.714 0 01-.558.052.717.717 0 01-.213-1.26l1.314-.632.449 1.312-.992.528zm3.498-1.828l-1.548.8-.439-1.283 2.027-1.001-.04 1.484zm15.099-6.62a5.79 5.79 0 01-.599 2.559l-4.181-1.899a1.863 1.863 0 00-.788-1.388l1.464-4.86c2.378.756 4.105 2.974 4.105 5.588zm-11.789 0c0-3.235 2.644-5.867 5.894-5.867.253 0 .5.021.745.052l-1.432 4.754c-.019-.001-.037-.006-.057-.006-1.033 0-1.873.837-1.873 1.867s.84 1.867 1.873 1.867c.694 0 1.294-.383 1.618-.945l3.862 1.755a5.894 5.894 0 01-4.737 2.39c-3.25 0-5.894-2.632-5.894-5.867zm5.956.8c0 .441-.362.8-.806.8s-.806-.359-.806-.8c0-.441.362-.8.806-.8s.806.359.806.8zM2.465 25.146a.608.608 0 01-.854.001.592.592 0 010-.844l.962-.958.851.848-.959.955zm3.214 3.734a.608.608 0 01-.855.001.592.592 0 010-.844l.963-.959.852.848-.96.955zm3.481-3.469l-.002.001-1.765 1.76-.852-.848 1.763-1.755.002-.001c.04-.04.065-.088.09-.135.007-.014.02-.026.026-.04.017-.041.019-.085.026-.129.003-.025.014-.047.014-.073 0-.036-.013-.07-.02-.106-.006-.032-.006-.065-.019-.095a.55.55 0 00-.091-.138c-.01-.012-.014-.027-.025-.038h-.001l-.001-.002-1.607-1.6c-.017-.017-.039-.024-.058-.038a.507.507 0 00-.087-.058.515.515 0 00-.093-.033.507.507 0 00-.103-.02.5.5 0 00-.095.005.53.53 0 00-.104.02.477.477 0 00-.094.045c-.02.011-.042.015-.061.029L4.23 23.486l-.901-.897 2.399-2.386 4.361 4.289-.928.919zm6.819-7.017c-.015-.002-.03.004-.045.003a.556.556 0 00-.3.075.492.492 0 00-.083.061c-.013.011-.028.017-.04.029l-4.698 5.146-4.328-4.257 2.833-2.818a.534.534 0 00-.379-.911v-.001l-2.219.013.028-1.607 3.104.027a6.947 6.947 0 004.981 2.101c.437 0 .864-.045 1.279-.123.04.032.079.065.13.085l2.41.96.152.758.178.885-3.003-.427zm4.041.178l-.313-1.558 1.446-1.08.947 1.257-2.08 1.381zm3.754-2.831l-.838.785-.931-1.236.831-.637a.735.735 0 01.543-.143.718.718 0 01.48.284.713.713 0 01-.085.947z"/><path d="M13.602 18.544l-2.143-2.133a.534.534 0 00-.753 0l-2.142 2.133a.537.537 0 000 .756l2.142 2.133a.536.536 0 00.753 0l2.143-2.133a.535.535 0 000-.756zm-2.519 1.759l-1.387-1.381 1.387-1.381 1.387 1.381-1.387 1.381zm6.081-15.232l-.258 1.036c.071.018 1.738.452 1.738 2.149h1.067c0-2.017-1.666-2.965-2.547-3.185zm2.547 4.251h-1.067v1.067h1.067V9.322z"/></symbol><symbol id="icon-clock1" viewBox="0 0 32 32"><path d="M31.297 15.301C31.295 6.849 24.442-.002 15.989 0S.686 6.855.688 15.308a15.304 15.304 0 0010.649 14.576.662.662 0 00.529-.065.637.637 0 00.283-.356l3.865-12.25a1.912 1.912 0 10-.84-3.635l-5.106-5.107a.637.637 0 00-.902.902l5.103 5.109a1.876 1.876 0 00.536 2.309l-3.683 11.673C3.844 25.783.118 17.71 2.799 10.432S13.553-.572 20.831 2.109s11.004 10.754 8.323 18.032a14.042 14.042 0 01-7.462 7.973l-.398-1.874a.638.638 0 00-1.048-.344l-3.837 3.426a.637.637 0 00.231 1.084l4.899 1.563a.638.638 0 00.819-.74l-.391-1.839a15.255 15.255 0 009.329-14.089zm-15.305-.637a.638.638 0 110 1.277.638.638 0 010-1.277zm2.101 14.864l2.184-1.948.603 2.84-2.787-.892z"/><path d="M15.354 3.185V4.46a.638.638 0 101.276 0V3.185a.638.638 0 00-1.276 0zM3.876 14.664a.638.638 0 000 1.276h1.275a.638.638 0 100-1.276H3.876zm24.232 1.275a.638.638 0 100-1.276h-1.275a.638.638 0 000 1.276h1.275z"/></symbol><symbol id="icon-diagram1" viewBox="0 0 32 32"><path d="M14.925 14.965h1.066v4.798h-1.066v-4.797zm4.265 2.132h1.066v2.665H19.19v-2.665zm-8.529 1.599h1.066v1.066h-1.066v-1.066zm-3.198-.533h1.066v1.599H7.463v-1.599z"/><path d="M1.599 28.291h25.587a1.6 1.6 0 001.599-1.599V24.56a1.6 1.6 0 00-1.599-1.599h-.533V9.668L29.681 6.8a1.608 1.608 0 10-.746-.763L26.654 8.2V6.97a1.6 1.6 0 00-1.599-1.599H3.733A1.6 1.6 0 002.134 6.97v15.992h-.533a1.6 1.6 0 00-1.599 1.599v2.132a1.6 1.6 0 001.599 1.599zM30.384 4.837a.533.533 0 110 1.067.533.533 0 010-1.067zM3.198 6.969c0-.294.239-.533.533-.533h21.322c.294 0 .533.239.533.533v2.239l-1.066 1.013V8.035a.533.533 0 00-.533-.533H4.797a.533.533 0 00-.533.533v13.326c0 .294.239.533.533.533h19.19a.533.533 0 00.533-.533v-9.674l1.066-1.01v12.284H3.198V6.969zm4.798 6.93a1.598 1.598 0 101.107 2.749l1.853.93a.532.532 0 00.636-.123l3.939-4.431 3.872 2.901a.533.533 0 00.686-.039l3.365-3.188v8.131H5.33V8.569h18.124v2.66l-3.771 3.572-3.904-2.927a.533.533 0 00-.718.072l-3.993 4.493-1.493-.746c.011-.064.018-.129.02-.193a1.6 1.6 0 00-1.599-1.599zm.533 1.599a.533.533 0 11-1.067 0 .533.533 0 011.067 0zm3.198 8.529h5.331v.533a.533.533 0 01-.533.533h-4.264a.533.533 0 01-.533-.533v-.533zm-10.661.533c0-.294.239-.533.533-.533h9.062v.533a1.6 1.6 0 001.599 1.599h4.264a1.6 1.6 0 001.599-1.599v-.533h9.062c.294 0 .533.239.533.533v2.132a.533.533 0 01-.533.533H1.598a.533.533 0 01-.533-.533V24.56z"/></symbol><symbol id="icon-envelope" viewBox="0 0 43 32"><path d="M38.667 0H4C1.794 0 0 1.675 0 3.734v22.404c0 2.059 1.794 3.734 4 3.734h34.667c2.206 0 4-1.675 4-3.734V3.734c0-2.059-1.794-3.734-4-3.734zm0 2.489c.181 0 .353.035.511.096L21.334 17.022 3.49 2.585c.158-.061.33-.096.511-.096h34.667zm0 24.894H4c-.736 0-1.333-.558-1.333-1.245V5.216L20.46 19.611c.251.203.563.304.874.304s.622-.101.874-.304L40.001 5.216v20.922c0 .687-.598 1.245-1.333 1.245z"/></symbol><symbol id="icon-smartphone" viewBox="0 0 21 32"><path d="M18.133 0H3.2C1.435 0 0 1.34 0 2.987v25.889c0 1.647 1.435 2.987 3.2 2.987h14.933c1.765 0 3.2-1.34 3.2-2.987V2.987c0-1.647-1.435-2.987-3.2-2.987zM3.2 1.991h14.933c.589 0 1.067.446 1.067.996v20.91H2.133V2.987c0-.549.478-.996 1.067-.996zm14.933 27.881H3.2c-.589 0-1.067-.446-1.067-.996v-2.987H19.2v2.987c0 .55-.478.996-1.067.996z"/><path d="M5.021 27.176c.417.389.417 1.02 0 1.409s-1.092.389-1.508 0c-.417-.389-.417-1.02 0-1.409s1.092-.389 1.508 0z"/></symbol><symbol id="icon-close-black" viewBox="0 0 32 32"><path d="M26.667 7.303l-1.97-1.97-7.808 7.808-7.808-7.808-1.97 1.97 7.808 7.808-7.808 7.808 1.97 1.97 7.808-7.808 7.808 7.808 1.97-1.97-7.808-7.808 7.808-7.808z"/></symbol><symbol id="icon-mail-black" viewBox="0 0 43 32"><path d="M37.333 0h-32c-2.2 0-3.98 1.8-3.98 4l-.02 24c0 2.2 1.8 4 4 4h32c2.2 0 4-1.8 4-4V4c0-2.2-1.8-4-4-4zm-.8 8.5l-14.14 8.84c-.64.4-1.48.4-2.12 0L6.133 8.5c-.5-.32-.8-.86-.8-1.44 0-1.34 1.46-2.14 2.6-1.44l13.4 8.38 13.4-8.38c1.14-.7 2.6.1 2.6 1.44 0 .58-.3 1.12-.8 1.44z"/></symbol><symbol id="icon-phone-black" viewBox="0 0 32 32"><path d="M24.881 19.773l-3.268-.373a2.561 2.561 0 00-2.11.733L17.136 22.5a19.357 19.357 0 01-8.478-8.478l2.38-2.38a2.561 2.561 0 00.733-2.11l-.373-3.242a2.575 2.575 0 00-2.56-2.277H6.612c-1.454 0-2.663 1.209-2.573 2.663.682 10.987 9.469 19.761 20.443 20.443 1.454.09 2.663-1.119 2.663-2.573V22.32a2.549 2.549 0 00-2.264-2.547z"/></symbol><symbol id="icon-person-black" viewBox="0 0 32 32"><path d="M16 16c4.42 0 8-3.58 8-8s-3.58-8-8-8-8 3.58-8 8 3.58 8 8 8zm0 4c-5.34 0-16 2.68-16 8v2c0 1.1.9 2 2 2h28c1.1 0 2-.9 2-2v-2c0-5.32-10.66-8-16-8z"/></symbol></defs></svg>